<svg width="50" height="50" viewBox="0 0 50 50" fill="none" xmlns="http://www.w3.org/2000/svg">
<path d="M18.7 10H31.3C36.1 10 40 14.03 40 18.99V32.01C40 34.3943 39.0834 36.6809 37.4518 38.3669C35.8203 40.0528 33.6074 41 31.3 41H18.7C13.9 41 10 36.97 10 32.01V18.99C10 16.6057 10.9166 14.3191 12.5482 12.6331C14.1797 10.9472 16.3926 10 18.7 10ZM18.4 13.1C16.9678 13.1 15.5943 13.6879 14.5816 14.7343C13.5689 15.7808 13 17.2001 13 18.68V32.32C13 35.4045 15.415 37.9 18.4 37.9H31.6C33.0322 37.9 34.4057 37.3121 35.4184 36.2657C36.4311 35.2192 37 33.7999 37 32.32V18.68C37 15.5955 34.585 13.1 31.6 13.1H18.4ZM32.875 15.425C33.3723 15.425 33.8492 15.6291 34.2008 15.9925C34.5525 16.3558 34.75 16.8486 34.75 17.3625C34.75 17.8764 34.5525 18.3692 34.2008 18.7325C33.8492 19.0959 33.3723 19.3 32.875 19.3C32.3777 19.3 31.9008 19.0959 31.5492 18.7325C31.1975 18.3692 31 17.8764 31 17.3625C31 16.8486 31.1975 16.3558 31.5492 15.9925C31.9008 15.6291 32.3777 15.425 32.875 15.425ZM25 17.75C26.9891 17.75 28.8968 18.5665 30.3033 20.0199C31.7098 21.4733 32.5 23.4446 32.5 25.5C32.5 27.5554 31.7098 29.5267 30.3033 30.9801C28.8968 32.4335 26.9891 33.25 25 33.25C23.0109 33.25 21.1032 32.4335 19.6967 30.9801C18.2902 29.5267 17.5 27.5554 17.5 25.5C17.5 23.4446 18.2902 21.4733 19.6967 20.0199C21.1032 18.5665 23.0109 17.75 25 17.75ZM25 20.85C23.8065 20.85 22.6619 21.3399 21.818 22.212C20.9741 23.084 20.5 24.2667 20.5 25.5C20.5 26.7333 20.9741 27.916 21.818 28.788C22.6619 29.6601 23.8065 30.15 25 30.15C26.1935 30.15 27.3381 29.6601 28.182 28.788C29.0259 27.916 29.5 26.7333 29.5 25.5C29.5 24.2667 29.0259 23.084 28.182 22.212C27.3381 21.3399 26.1935 20.85 25 20.85Z" fill="#342F2F"/>
</svg>
